<?xml version="1.0" encoding="UTF-8" standalone="no"?>
<svg
   xmlns:dc="http://purl.org/dc/elements/1.1/"
   xmlns:cc="http://creativecommons.org/ns#"
   xmlns:rdf="http://www.w3.org/1999/02/22-rdf-syntax-ns#"
   xmlns:svg="http://www.w3.org/2000/svg"
   xmlns="http://www.w3.org/2000/svg"
   xmlns:sodipodi="http://sodipodi.sourceforge.net/DTD/sodipodi-0.dtd"
   xmlns:inkscape="http://www.inkscape.org/namespaces/inkscape"
   version="1.0"
   width="73.208664pt"
   height="74.487061pt"
   viewBox="0 0 73.208664 74.487061"
   preserveAspectRatio="xMidYMid meet"
   id="svg2"
   inkscape:version="0.91 r13725"
   sodipodi:docname="abilities.svg">
  <defs
     id="defs116" />
  <sodipodi:namedview
     pagecolor="#ffffff"
     bordercolor="#666666"
     borderopacity="1"
     objecttolerance="10"
     gridtolerance="10"
     guidetolerance="10"
     inkscape:pageopacity="0"
     inkscape:pageshadow="2"
     inkscape:window-width="757"
     inkscape:window-height="416"
     id="namedview114"
     showgrid="false"
     inkscape:zoom="3.1466667"
     inkscape:cx="-2.9606558"
     inkscape:cy="24.816749"
     inkscape:window-x="1476"
     inkscape:window-y="197"
     inkscape:window-maximized="0"
     inkscape:current-layer="svg2"
     fit-margin-top="0"
     fit-margin-left="0"
     fit-margin-right="0"
     fit-margin-bottom="0"
     units="pt" />
  <metadata
     id="metadata4">
Created by potrace 1.11, written by Peter Selinger 2001-2013
<rdf:RDF>
  <cc:Work
     rdf:about="">
    <dc:format>image/svg+xml</dc:format>
    <dc:type
       rdf:resource="http://purl.org/dc/dcmitype/StillImage" />
    <dc:title></dc:title>
  </cc:Work>
</rdf:RDF>
</metadata>
  <g
     id="ProtectionWhite"
     inkscape:label="ProtectionWhite"
     transform="translate(-27.38866,-10.945877)"
     style="stroke:#000000;stroke-opacity:1;fill:#ffffff;fill-opacity:1">
    <path
       d="m 47.4,14 c -7.8,2 -16.3,5.9 -18.3,8.4 -3.1,3.7 2.4,24.1 9.6,36 4.2,6.9 16.8,20.5 21.9,23.7 l 3.4,2.1 3.4,-2.1 c 5.4,-3.4 18,-17.2 22.4,-24.7 4.7,-8 8.7,-19.4 9.7,-27.7 0.9,-7 0,-8.3 -8.5,-12.1 C 78.3,11.9 60.8,10.5 47.4,14 Z m 19.9,2.2 c -2,2.6 -2.2,4.8 -0.6,6.3 0.9,0.9 1.9,3.1 2.2,4.8 0.9,4.1 4.6,4.6 4.6,0.7 0,-2 0.6,-2.6 2.9,-2.8 1.6,-0.2 4.5,0 6.5,0.3 l 3.6,0.8 -3.5,1.2 c -3.1,1 -3.5,1.5 -3.2,4.3 0.2,2.1 -0.2,3.3 -1.4,4 -1,0.6 -1.5,1.6 -1.1,2.6 0.8,2 3.3,2.1 4.1,0.1 0.9,-2.5 3.3,-1.7 6.5,2.2 3.9,4.7 3.9,5.4 0,4 -2.6,-1 -3.2,-0.9 -4.3,0.6 -0.7,0.9 -2.5,1.7 -4,1.7 -1.5,0 -2.9,0.7 -3.2,1.5 -0.8,2.1 1.6,4.7 3.8,4.2 1.6,-0.5 1.8,0.2 1.8,4.7 0,6.4 -0.9,7.7 -2.7,3.5 -1.1,-2.6 -1.7,-3 -3.7,-2.5 -1.8,0.4 -2.9,0.1 -3.9,-1.4 -0.9,-1.3 -2,-1.8 -3.1,-1.4 -2,0.8 -2.1,3.2 -0.1,5.4 1.4,1.5 1.3,2 -1.2,4.4 -2.7,2.8 -6.3,5.1 -6.3,4.2 0,-0.3 0.5,-1.7 1.2,-3.2 1.1,-2.3 1,-2.8 -0.7,-4 -1,-0.8 -1.9,-2.7 -2,-4.2 0,-2 -0.6,-2.8 -2.2,-3 -1.7,-0.3 -2.2,0.2 -2.5,2.5 -0.3,2.5 -0.7,2.8 -4.7,3.1 -6.4,0.5 -8.4,-0.6 -4.3,-2.3 2.6,-1.1 3.2,-2 3.2,-4.4 0,-1.8 0.7,-3.4 1.8,-4 1.6,-0.9 1.6,-1.1 0,-2.7 -1.6,-1.7 -1.9,-1.7 -3.6,-0.1 -2.7,2.5 -3.7,2.1 -7.1,-2.2 -3.8,-4.8 -3.8,-5.2 -0.2,-3.8 2.5,0.9 3.3,0.8 4.9,-0.6 1,-0.9 2.8,-1.7 4.1,-1.7 1.2,0 2.4,-0.7 2.7,-1.5 0.8,-2 -1.3,-4.5 -3.7,-4.5 -2.5,0 -2.8,-0.8 -2.2,-6.3 0.6,-5.2 1.7,-6.1 2.7,-2.2 0.5,2.1 1.2,2.5 4.1,2.5 2.5,0 3.5,0.5 4,2.1 0.7,2.2 2.3,2.1 3.9,-0.3 0.7,-1.2 0.6,-2.4 -0.4,-4.4 -1.4,-2.5 -1.3,-2.8 2.5,-6 4,-3.3 6.6,-4.5 4.8,-2.2 z"
       id="path8"
       inkscape:connector-curvature="0"
       style="fill:#ffffff;stroke:#000000;stroke-opacity:1;fill-opacity:1" />
    <path
       d="m 57.9,32.5 c -2.9,1.6 -5.9,7 -5.9,10.7 0,3.7 3.7,8.8 7.7,10.5 10,4.1 19.5,-6.2 14.8,-16.1 C 71.6,31.5 64,29.2 57.9,32.5 Z m 11.1,1 c 4,2.1 6.4,6.8 5.6,11.1 C 73.7,49.1 68.9,53 64.1,53 53.7,53 49.5,39.3 58.4,33.9 62.2,31.6 65.1,31.5 69,33.5 Z"
       id="path10"
       inkscape:connector-curvature="0"
       style="fill:#ffffff;stroke:#000000;stroke-opacity:1;fill-opacity:1" />
  </g>
  <path
     style="fill:#ffffff;stroke:#000000;stroke-opacity:1;fill-opacity:1"
     inkscape:connector-curvature="0"
     id="ProtectionBlue"
     d="m 25.1733,2.1339494 c -5.1,0.8 -15.5999998,4.5 -19.7,6.8999998 -4.2,2.4000008 -4.3,2.6000008 -4.3,7.7000008 0,10.6 5.3,24.7 13.4,36.1 4.5,6.2 14,15.9 18.8,19 2.5,1.6 2.9,1.6 5.8,0.1 4.5,-2.4 15.8,-13.9 20.5,-21 5.9,-8.9 10.4,-20.2 11.7,-29.3 1.4,-9.4 1.1,-10 -6.5,-13.8000006 -10.2,-5.2 -27.6,-7.70000204 -39.7,-5.7 z m 20.7,26.7000006 c 5.9,8.7 6.9,11.8 5.3,17.5 -2.2,8.1 -10.9,13.3 -18.8,11.2 -7.1,-2 -11.4,-8.2 -11.6,-16.7 -0.1,-7 5.6,-18.3 13.2,-26.6 l 5.7,-6.1000006 0.6,6.6000006 c 0.5,5.8 1.2,7.5 5.6,14.1 z"
     inkscape:label="#path12" />
  <g
     id="ProtectionBlack"
     inkscape:label="#g4301"
     transform="translate(-220.25527,-10.700835)"
     style="stroke:#000000;stroke-opacity:1;fill:#ffffff;fill-opacity:1">
    <path
       d="m 240,14 c -4.1,1.1 -10,3.3 -13,4.8 l -5.5,2.8 0.1,7.5 c 0.3,16.7 12.3,38.1 28.7,50.8 5.5,4.2 5.8,4.4 8.5,3 4.4,-2.3 17.3,-15.8 22,-23 5.6,-8.7 10.1,-21.3 10.8,-30.2 l 0.6,-7.2 -3.6,-2.3 C 277.8,13 254.8,10 240,14 Z m 27.4,5.7 c 2,0.9 3.6,2 3.6,2.4 0,0.4 -1.2,1.7 -2.6,2.8 -3.1,2.5 -2.6,2.6 2.1,0.7 3,-1.3 3.5,-1.3 4.8,0.2 2.7,3.1 5.7,10.1 6.3,14.4 0.8,6.6 -1,9 -8.1,10.8 l -6,1.5 0,8.2 c 0,4.5 -0.3,8.4 -0.7,8.8 -1.4,1.4 -3.9,-0.5 -3.8,-2.7 0.3,-3.6 0.1,-4.8 -1,-4.8 -0.5,0 -1,0.9 -1,2 0,1.1 -0.2,2 -0.4,2 -0.2,0 -1.1,0.3 -1.9,0.6 -1.2,0.4 -1.7,-0.3 -1.9,-2.8 l -0.4,-3.3 -0.8,4.2 c -1,5.1 -3.2,5.6 -4.1,1 -1.2,-5.2 -2,-5.5 -2.5,-0.7 -0.3,3.1 -1,4.5 -2,4.5 -1.2,0 -1.5,-1.6 -1.6,-7.9 -0.2,-9 -0.8,-9.9 -7.4,-11 -6.5,-1 -8.4,-6 -5.9,-15.1 1.2,-4.3 6.4,-12.5 7.9,-12.5 0.6,0 1,0.8 1,1.7 0,2.7 1.2,3.9 4.5,4.7 l 3,0.6 -2.7,-2.1 c -1.9,-1.4 -2.8,-3 -2.8,-4.9 0,-2.7 1.6,-3.9 7.5,-5.4 3.5,-0.9 13.2,0.3 16.9,2.1 z"
       id="path14"
       inkscape:connector-curvature="0"
       style="fill:#ffffff;stroke:#000000;stroke-opacity:1;fill-opacity:1" />
    <path
       d="m 238,37 c -1.1,1.1 -2.3,3.2 -2.6,4.6 -1,4.1 1.7,5.5 9.6,5.2 5.8,-0.3 6.5,-0.5 6.8,-2.5 0.2,-1.3 -0.9,-3.5 -2.8,-5.7 -3.7,-4.2 -7.8,-4.8 -11,-1.6 z"
       id="path16"
       inkscape:connector-curvature="0"
       style="fill:#ffffff;stroke:#000000;stroke-opacity:1;fill-opacity:1" />
    <path
       d="m 265,37.7 c -2,1.8 -3.2,3.9 -3.3,5.8 l -0.2,3 7.1,0.3 C 274,47 276,46.7 277,45.6 279.7,42.3 275.2,35 270.5,35 c -1.4,0 -3.8,1.2 -5.5,2.7 z"
       id="path18"
       inkscape:connector-curvature="0"
       style="fill:#ffffff;stroke:#000000;stroke-opacity:1;fill-opacity:1" />
  </g>
  <path
     style="fill:#ffffff;stroke:#000000;stroke-opacity:1;fill-opacity:1"
     inkscape:connector-curvature="0"
     id="ProtectionRed"
     d="m 20.3908,3.2852994 c -7.4,2 -14.5,5.2 -17.5,7.9000006 -5.4,4.7 2.2,28.7 13.9,44 5.4,7.1 13.5,14.7 18.1,17.1 2.9,1.5 5.1,0.2 13.6,-7.8 14,-13.4 23.6,-32.7 23.6,-47.8 0,-5.1 -0.1,-5.3 -4.2,-7.7000008 -8.1,-4.6999998 -16.5,-6.7999998 -28.8,-7.1999998 -9.2,-0.3 -12.9,0 -18.7,1.5 z m 21.9,5.1 c 5,1.3999998 9.4,5.3000006 12.3,10.9000006 2.4,4.6 3.4,3.6 1.4,-1.6 -0.9,-2.6 -0.9,-2.7 0.7,-1.1 2.6,2.5 4.4,11.1 3.3,15.2 -0.5,1.9 -1.4,3.8 -1.9,4.1 -0.5,0.3 -2.3,2.4 -4.1,4.6 -3.1,4 -3.2,4.1 -0.8,3.4 1.3,-0.4 3.6,-1.6 5.2,-2.7 3.2,-2.3 3.5,-1.1 0.6,2.6 -2.6,3.3 -6.9,5.6 -10.6,5.6 -4.3,0 -7.3,1.1 -7.3,2.6 0,0.9 1.2,1.4 3.7,1.4 2.9,0 3.4,0.3 2.5,1.2 -0.7,0.7 -5.2,1.4 -11.2,1.6 -11.2,0.5 -13.5,-0.4 -17,-6.1 -2.6,-4.1 -2.5,-9.3 0,-13.5 2.7,-4.4 7.4,-6.3 13.8,-5.5 4.1,0.4 5.8,0.2 8.6,-1.5 l 3.6,-2.1 0,2.5 c 0,1.6 -1.5,4 -4,6.7 -4.5,4.5 -4.6,6 -0.8,6.5 3.3,0.4 5.8,-3 5.8,-7.8 0,-2 0.7,-4.5 1.5,-5.6 1.4,-1.8 1.4,-1.7 0.8,1.5 -0.5,2.6 -0.3,3.3 0.7,2.9 1.9,-0.6 3.7,-6.1 2.1,-6.6 -2.4,-0.8 -7.1,-5.4 -7.1,-7 0,-1.2 0.3,-1.3 1.2,-0.4 3.2,3.2 3.9,-1.2 0.9,-4.9 -1.8,-2.2 -2.2,-2.3 -5.3,-1.1 -1.9,0.6 -4.5,1.2 -5.9,1.2 -2.2,-0.1 -2.1,-0.2 0.9,-1.5 4,-1.8 3.4,-3.2 -1.6,-4.1000008 -2,-0.4 -4.4,-0.9999998 -5.2,-1.4999998 -2.2,-1.2 8.7,-1.1 13.2,0.1 z"
     inkscape:label="#path20" />
  <path
     style="fill:#ffffff;stroke:#000000;stroke-opacity:1;fill-opacity:1"
     inkscape:connector-curvature="0"
     id="ProtectionGreen"
     d="m 20.65556,3.4952694 c -7.8,2 -16.3,5.8999998 -18.3,8.4000006 -3,3.6 1.9,23 8.7,34.4 6.2,10.3 17.7,22.7 24.3,26.2 2.8,1.6 7,-1.2 16,-10.8 13.5,-14 20.1,-27.8 20.3,-42.2 l 0.1,-8.5 -5.2,-2.8000006 c -12.2,-6.5 -31.4,-8.50000309 -45.9,-4.7 z m 20.7,4.9 c 1.5,1.1999998 3.4,1.6999996 5,1.3999998 2.6,-0.5 7.9,2.9000008 7.9,5.0000008 0,0.7 0.9,1.8 2.1,2.5 1.1,0.7 1.8,1.8 1.6,2.5 -0.2,0.7 0.7,2.5 2,4.1 1.7,2 2.3,3.8 2,5.5 -0.3,1.4 -0.1,3.4 0.4,4.3 2,3.7 -3.5,8.1 -5.7,4.7 -0.9,-1.5 -10.2,-0.6 -11.9,1.2 -0.8,0.8 -1.7,3.2 -2.1,5.5 -0.8,5 1.2,7.4 6.1,7.4 1.9,0 3.7,0.4 4,1 0.3,0.5 -0.1,1 -1,1 -0.9,0 -1.3,0.5 -0.9,1.1 0.4,0.7 -0.4,1 -2.5,0.7 -1.9,-0.1 -3.5,0.3 -4,1 -0.6,1 -1,1 -2.1,-0.3 -1.7,-2 -3.6,-1.9 -4.5,0.2 -0.6,1.6 -0.8,1.5 -2,-0.7 -1.2,-2.2 -1.4,-2.3 -2,-0.8 -0.9,2.2 -2.5,2.4 -2.5,0.4 0,-1.1 -1.4,-1.6 -4.7,-1.8 -4.5,-0.3 -4.7,-0.4 -2.3,-1.5 1.4,-0.6 3.7,-1.4 5.3,-1.7 2.2,-0.5 2.7,-1.2 2.7,-3.5 0,-4.3 -0.9,-6 -4.2,-7.7 -2.8,-1.5 -3.1,-1.4 -5.3,0.6 -3.1,2.9 -7.5,2.4 -9.5,-1.2 -1.2,-2.3 -1.3,-3.1 -0.2,-4.8 0.9,-1.5 1,-2.6 0.2,-4 -1.3,-2.5 -1.4,-2.2 1.9,-6.3 1.9,-2.5 2.7,-4.4 2.4,-6.1 -0.8,-4.2 6.2,-8.9000008 8.3,-5.5 0.4,0.7 1.8,-0.3 3.6,-2.500001 3.4,-4.1999996 8,-4.7999996 11.9,-1.6999996 z"
     inkscape:label="#path22" />
  <path
     style="fill:#ffffff;stroke:#000000;stroke-opacity:1;fill-opacity:1"
     inkscape:connector-curvature="0"
     id="Reach"
     d="m 0.5,1.3838194 c 0,2.8 7.4000002,30.5000006 8.1000002,30.5000006 0.6,0 1.7999998,-1.4 2.6999998,-3.1 4.2,-7.79999 3.8,-7.79999 13,0.7 4.5,4.1 8.2,7.9 8.2,8.2 0,0.4 -0.9,1.3 -1.9,1.9 -1.6,1 -2.4,0.9 -4.6,-0.9 -2.5,-2 -2.7,-2 -7.1,-0.3 -2.6,1 -5.5,3.1 -7.2,5.3 -2.3999998,3.1 -2.6999998,4.6 -3.0999998,12.1 -0.4,11.00001 -2.5000002,14.10001 -5.5000002,8.3 -1.3,-2.3 -1.5,-2.5 -2.1,-0.9 -1,2.50001 1.2,7.30001 4.1,8.50001 3.2000002,1.5 6.6,0.1 9.5,-3.7 l 2.3,-3.1 20.8,0 20.8,0 4,4.2 4.1,4.1 2.9,-2.8 3,-2.9 -4,-4.10001 -4,-4.1 0,-20.9 0,-20.99999 3.4,-2.7 c 4.2,-3.4 4.9,-5.8000006 2.5,-9.7000006 -2.3,-3.70001 -6.4,-5.00000604 -8.7,-2.70001 -1.5,1.5 -1.4,1.6 1,1.6 1.4,0 2.8,0.60001 3.1,1.40001 1.1,2.8 -2.3,4.0999998 -10.3,4.0999998 -6.6,0 -8.2,0.4 -11.7,2.7000008 -6.1,4 -9.2,12 -5.8,14.79999 1.7,1.4 1.9,2.9 0.5,5 -0.8,1.2 -2.5,0 -9,-6.5 -4.4,-4.39999 -8,-8.29999 -8,-8.69999 0,-0.4 2.7,-2.1 6.1,-3.9 4.5,-2.4 5.7,-3.5000008 4.5,-4.1000006 -0.8,-0.4 -7.4,-2.2 -14.8,-3.8 -7.3,-1.70001 -14.1,-3.30001 -15,-3.60001 -1,-0.30000004 -1.8,-0.2 -1.8,0.1 z m 61,35.7000006 0,20.3 -9.7,-9.8 -9.8,-9.8 5,-4.3 c 4.6,-4.1 4.8,-4.4 3.2,-6 -3.3,-3.29999 -1.4,-6.89999 4.8,-9.09999 6.9,-2.4 6.5,-3.5 6.5,18.69999 z m -14,15.3 9.5,9.5 -20.4,0 -20.3,0 0.7,-3.7 c 1.4,-7.6 5,-10.4 9.4,-7.6 2.4,1.5 2.6,1.5 6.4,-3.1 2.1,-2.5 4.2,-4.6 4.6,-4.6 0.3,0 4.9,4.3 10.1,9.5 z"
     inkscape:label="#path24" />
  <g
     id="Hexproof"
     inkscape:label="#g4314"
     transform="translate(-602.98992,-10.964194)"
     style="stroke:#000000;stroke-opacity:1;fill:#ffffff;fill-opacity:1">
    <path
       d="m 636.9,14.6 c -3.4,3.7 -8.8,6.2 -14.8,7 -3.1,0.4 -5.5,1.3 -5.8,2.1 -1,2.5 1.8,13.7 5,20.3 3.6,7.3 15.2,20 18.4,20 1.1,0 4.8,-3 8.6,-6.9 8.5,-8.7 13.7,-19.1 14.5,-28.6 l 0.5,-6.5 -3,0 c -5.2,0 -12.8,-2.9 -17,-6.4 l -4,-3.5 -2.4,2.5 z m 6.6,15.4 c 2.1,2.1 2.9,4.2 3.3,7.9 0.4,4.3 0.1,5.3 -2.1,7.5 -3.5,3.5 -6.9,3.3 -10.1,-0.5 -2.9,-3.4 -3.1,-4.7 -1.6,-10.1 0.9,-3.2 5,-7.8 6.9,-7.8 0.4,0 2,1.3 3.6,3 z"
       id="path26"
       inkscape:connector-curvature="0"
       style="fill:#ffffff;stroke:#000000;stroke-opacity:1;fill-opacity:1" />
    <path
       d="m 610,43.2 c -4,6.6 -1.8,16.4 4.7,20.4 7.5,4.7 11.4,10.6 7.9,12 -2.1,0.8 -5.6,-1.4 -10.7,-6.8 -2.5,-2.6 -5.3,-4.8 -6.4,-4.8 -1.7,0 -1.7,0.1 0.2,2.2 1.2,1.3 2.4,4.5 2.9,7.3 1.2,8.1 6.9,12.4 12.6,9.4 4.9,-2.6 7.8,-2.9 9.7,-0.7 l 1.9,2 1.8,-2.8 c 2.6,-3.9 2.3,-9.2 -0.8,-14.4 -2.9,-5.1 -11.8,-12.2 -11.8,-9.6 0,2.5 -1.6,1.9 -6.1,-2.4 -4.1,-3.9 -4.1,-4 -3.7,-9.5 0.3,-3 0.3,-5.5 0.1,-5.5 -0.2,0 -1.2,1.5 -2.3,3.2 z"
       id="path28"
       inkscape:connector-curvature="0"
       style="fill:#ffffff;stroke:#000000;stroke-opacity:1;fill-opacity:1" />
    <path
       d="m 667.3,44 c 0.9,3.2 0.8,4.6 -0.6,7.5 -2,4.3 -7.5,7.9 -9.4,6.3 -0.9,-0.7 -1.8,-0.7 -3,0.3 -10.4,7.8 -14.1,17.1 -9.3,23.2 2.1,2.6 2.1,2.6 4,0.7 2,-2 2,-2 7.1,0.1 9,3.5 13.3,1 14.9,-8.6 0.5,-3.2 1.7,-6.7 2.7,-7.8 1.8,-1.9 1.7,-1.9 -0.7,-1.2 -1.4,0.4 -4.8,3.2 -7.5,6.1 -5.2,5.6 -7.4,6.5 -9.4,4 -1.8,-2.1 0.8,-5.6 7.3,-9.9 8.4,-5.5 10.6,-12.8 6.6,-20.7 -2.6,-5.1 -4,-5.1 -2.7,0 z"
       id="path30"
       inkscape:connector-curvature="0"
       style="fill:#ffffff;stroke:#000000;stroke-opacity:1;fill-opacity:1" />
  </g>
  <path
     style="fill:#000000;stroke:none"
     inkscape:connector-curvature="0"
     id="path32"
     d="m 289.63868,-86.952131 -2.5,1 2.3,1.5 c 2.6,1.8 2.5,5.1 -0.1,6.8 -1.9,1.2 -2,1.1 -8.2,-3.8 -5.2,-4.1 -11,-4.4 -20.5,-1.2 -8.9,3.1 -13,3.4 -13.3,0.8 0,-0.9 -0.2,-2.2 -0.3,-2.7 -0.2,-0.6 -0.4,-1.5 -0.5,-2 -0.4,-2.4 -1.9,3.4 -1.9,7.8 -0.1,4.1 0.4,5.3 2.8,7.8 2.7,2.6 3.5,2.9 9.8,2.9 4.8,0 8.5,-0.7 12.6,-2.4 6.4,-2.7 8.1,-1.9 5,2.2 -3.1,4.1 -8,7.1 -15.8,9.3 -8.5,2.5 -11.3,4.4 -12.1,8.4 -0.6,3.1 0.3,4.7 6.9,12.9 3.4,4.1 4.5,10.2 2.4,13 -2,2.8 -6.6,2.4 -9.4,-0.8 -2.1,-2.5 -2.3,-2.5 -2.3,-0.7 0,8.2 9,12.6 17,8.2 14.6,-7.7 15.4,-8.4 16.5,-13.4 0.7,-2.8 3,-5.7 4.6,-5.7 2,0 4.9,4.2 4.9,7 0,3.7 -3.9,8 -7.2,8 -2.1,0.1 -2.2,0.1 -0.5,1.1 2.7,1.6 8.4,1.3 11.2,-0.5 4.8,-3.2 5.8,-6.9 5.1,-18.6 -0.5,-8.7 -0.4,-10.9 0.9,-12.8 3.9,-5.4 10.3,-0.6 9.1,6.9 l -0.6,4 2.9,-1.5 c 3.5,-1.9 7.1,-6.2 7.1,-8.7 0,-3.3 -2.2,-6.7 -5.1,-7.9 -3.8,-1.6 -4.4,-4.1 -1.9,-8.2 3.2,-5.2 2.7,-9.4 -1.8,-13.8 -5.1,-5.1 -11.8,-7 -17.1,-4.9 z" />
  <path
     style="fill:#ffffff;stroke:#000000;stroke-opacity:1;fill-opacity:1"
     inkscape:connector-curvature="0"
     id="Vigilance"
     d="m 1.91236,1.8555194 c -1.5,1.5 -0.6,16.3000006 1.3,24.0000006 4.6999902,18.3 17.19999,37.3 30.19999,45.8 2.7,1.7 2.9,1.7 6.1,-0.3 4.2,-2.6 13.3,-12.1 17.6,-18.4 7.8,-11.5 13.6,-28.1 14.7,-42.2 0.7,-9.1000006 0.2,-9.7000006 -6.4,-8.0000006 -9.3,2.5 -25.2,3.8 -36.2,3.1 -9.9,-0.6 -21.5999998,-2.5 -25.09999,-4 -0.8,-0.4 -1.8,-0.3 -2.2,0 z M 35.21235,28.95552 c 0,0.2 0.4,0.3 0.9,0.3 0.5,0 1.9,-2.5 3.2,-5.5 1.2,-3 2.6,-5.5 3,-5.5 1.6,0 3.9,4.5 3.9,7.5 0,4 -2.5,7.4 -6.6,9.1 -9,3.8 -17.3,-7.4 -11.3,-15 l 2.2,-2.7 2.3,5.8 c 1.3,3.2 2.4,5.9 2.4,6 z m -14.6,-5.5 c -0.8,6.3 2.7,12.6 8.6,15.5 2.4,1.3 5.6,2.3 7,2.3 1.4,0 4.6,-1 7,-2.3 5.9,-2.9 9.4,-9.2 8.6,-15.5 l -0.6,-4.4 3.9,2.9 c 2.1,1.5 5,4.2 6.5,6 3.2,3.8 2.8,5 -3.6,10.9 -7,6.4 -13,8.9 -21.8,8.9 -9.3,0 -15,-2.5 -22.8,-10.1 -4.5999998,-4.5 -5.1999998,-5.5 -4.2999998,-7.2 0.8999998,-1.8 10.7999998,-11.2 11.6999998,-11.2 0.2,0 0.1,1.9 -0.2,4.2 z"
     inkscape:label="#path34" />
  <path
     style="fill:#ffffff;stroke:#000000;stroke-opacity:1;fill-opacity:1"
     inkscape:connector-curvature="0"
     id="Trample"
     d="m 35.72228,5.5568794 c -0.6,2.1 -2.1,4.9000006 -3.3,6.2000006 -1.9,2 -2.2,3.5 -2.2,8.7 0.1,3.4 0.3,7.1 0.5,8.1 0.2,1.4 -0.5,2.3 -2.5,3 -3.8,1.4 -5.9,-0.1 -7.3,-5 -0.6,-2.3 -1.9,-4.3 -3.1,-4.9 -2.3,-1 -3.3,-4.3 -3.3,-10.9 -0.1,-4.1000006 -0.1,-4.1000006 -1.5,-1.6000008 -3.1999998,5.7000008 -6.7,16.1000008 -6.1,18.5000008 0.4,1.4 2.0000002,4 3.7,6 1.9,2.1 2.9,4.1 2.5,5.1 -1.2,3.1 0.7,6.3 6.5,10.9 6.2,4.9 8.9,8.8 8.9,12.9 0,1.5 1.1,3.3 2.9,4.8 1.6,1.3 3.4,3.4 4.1,4.8 1.3,2.3 1.4,2.4 2.4,0.5 0.6,-1 2.6,-3.4 4.5,-5.3 3.3,-3.5 3.4,-3.6 2.8,-10.5 l -0.6,-6.9 2.7,0.5 c 6,1.1 13.2,-4.3 13.2,-10 0,-2.6 0.8,-4.5 2.6,-6.4 4.2,-4.4 4.3,-9.9 0.4,-19.2 -1.7,-4.2 -3.5,-7.7000006 -3.8,-7.7000006 -0.4,0 -0.8,2.7999998 -0.9,6.2000006 -0.2,5.1 -0.7,6.6 -2.4,7.9 -1.2,0.9 -3,3.6 -3.8,6 -1.8,4.8 -4.3,6 -8.1,3.9 -1.8,-0.9 -2,-1.7 -1.4,-4.3 1.2,-5.6 0.5,-12 -1.7,-15 -1.1,-1.6 -2.6,-4.5000006 -3.3,-6.5000006 l -1.3,-3.7 -1.1,3.9 z"
     inkscape:label="#path36" />
  <path
     style="fill:#ffffff;stroke:#000000;stroke-opacity:1;fill-opacity:1"
     inkscape:connector-curvature="0"
     id="Indestructible"
     d="m 25.79264,3.8111994 c -9.7,2.7 -18.1999998,6.0999998 -19.8,8.0000006 -0.8,1 -0.3,2.1 2.0000002,4.3 3.3999998,3.4 3.8999998,7.5 1.4,10.3 -1.4,1.6 -1.5,2.7 -0.5,8.2 1.3999998,8.2 1.3999998,12.6 -0.1,18.2 -1.2,4.3 -1.1,5 1.4999998,9.9 1.6,2.9 4.1,6.5 5.6,8 2.5,2.4 3.2,2.6 5,1.7 1.5,-0.9 2.1,-2.1 2.1,-4.6 0,-1.9 1.1,-6.5 2.5,-10.1 1.5,-4 2.3,-7.6 1.9,-8.8 -0.4,-1.2 -2.9,-4.2 -5.5,-6.8 -3.7,-3.6 -4.9,-5.5 -4.9,-7.7 0,-2.8 0.2,-3 2.5,-2.1 4.4,1.7 10.1,4.8 11.2,6.2 0.6,0.7 1.3,3.1 1.5,5.3 0.3,2.2 1.3,5.7 2.2,7.9 2.5,6.1 3.8,4.3 7.4,-10.9 0.6,-2.4 2,-3.6 7.2,-6.2 3.5,-1.8 6.8,-2.9 7.3,-2.6 2.1,1.3 -0.5,6.7 -5.3,11.2 -5.2,4.9 -6.2,8 -4,12.2 0.6,1.1 1.9,5.2 2.9,9.1 2.1,8.9 4.2,10.6 7.6,6.4 1.3,-1.6 3.5,-5.4 5,-8.4 2.5,-5 2.6,-5.7 1.5,-10.4 -0.8,-3.3 -1,-8.4 -0.5,-15.3 0.5,-7 0.3,-10.5 -0.4,-10.9 -2.2,-1.4 -1.2,-6.4 2,-9.5 1.7,-1.7 2.7,-3.5 2.4,-4.1 -1.3,-2.1 -10.3,-5.8000006 -20.3,-8.4000006 -5.6,-1.4 -10.8,-2.6 -11.5,-2.5 -0.7,0.1 -5.1,1.2 -9.9,2.4 z"
     inkscape:label="#path38" />
  <path
     style="fill:#ffffff;stroke:#000000;stroke-opacity:1;fill-opacity:1"
     inkscape:connector-curvature="0"
     id="TotemArmor"
     d="m 24.17779,3.8252494 c -2.9,3.1 -5.1,10.5000006 -5.1,17.3000006 0,2.9 -0.4,5.3 -0.9,5.3 -1.5,0 -5,-8.2 -5.9,-14 l -0.9,-5.5000006 -1.5999998,3.7000006 c -1.9,4.2 -2.2000002,12.1 -0.6,18.7 0.5,2.4 0.8,4.6 0.5,4.8 -0.9,1 -5.5000002,-4.9 -6.1000002,-7.8 -1,-4.7 -2.5,-2.3 -2.5,4 0,4.6 0.5,6.6 2.6,9.6 1.4,2.1 2.3,4.6 2.1,5.7 -0.5,1.8 0.9,2.4 2.9000002,1 0.6,-0.4 2.0999998,-2.6 3.1999998,-4.8 2.5,-5 7.7,-10.4 9.9,-10.4 1.5,0 1.5,0.2 0.1,1.7 -4.8,5.5 -7.2,15.8 -5.6,23.7 1.1,5.2 6,11.6 10.8,14.1 10.1,5.2 23.4,0.5 28.1,-9.9 3.3,-7.3 1.9,-19.6 -3,-26.5 -1.3,-1.7 -1.8,-3.1 -1.2,-3.1 2,0 7.2,5.5 9.9,10.5 2.8,5.2 6.2,7.2 6.2,3.7 0,-1.1 1.1,-4 2.5,-6.3 2.5,-4.5 3.4,-12 1.6,-14.8 -0.6,-1 -1.2,-0.4 -2,2.1 -0.6,1.9 -2.3,4.6 -3.7,5.9 l -2.5,2.4 0.8,-5.5 c 1.2,-8.4 0.8,-16.2 -1,-19.5000008 l -1.6,-2.9999998 -0.1,2.5999998 c 0,3.9000008 -2.8,12.4000008 -4.9,15.0000008 -1.8,2.2 -1.8,2.2 -2.4,-4.9 -0.6,-7.2 -3.2,-14.7000006 -5.8,-16.9000006 -1.2,-1 -1.4,0.1 -1.4,6.9999998 0,6.4000008 -0.4,8.9000008 -2,11.6000008 -1.9,3.3 -2.2,3.4 -8.4,3.5 -6,0.1 -6.4,0 -7.9,-2.9 -1.2,-2.1 -1.7,-5.5 -1.7,-11.800001 0,-4.7999996 0,-8.6999996 -0.1,-8.6999996 0,0 -1.1,1.1 -2.3,2.4 z m 18.3,33.0000006 c 3.3,3.4 5.6,9.3 5.6,14.1 0,4.2 -3.9,10.2 -7.8,12.1 -3,1.4 -3.9,1.4 -7,0.2 -2,-0.8 -4.7,-2.9 -5.9,-4.7 -4.4,-6.5 -2.2,-17.9 4.3,-23 3.9,-3 7.1,-2.7 10.8,1.3 z"
     inkscape:label="#path40" />
  <path
     style="fill:#ffffff;stroke:#000000;stroke-opacity:1;fill-opacity:1"
     inkscape:connector-curvature="0"
     id="Deathtouch"
     d="m 21.60433,2.7545694 c -0.8,0.5 -1.2,1 -1,1.2 0.3,0.2 1.4,0.8 2.5,1.4 3.2,1.8 2.9,5.7000006 -0.9,13.5000006 -2.6,5.3 -3.6,8.6 -3.6,12.1 0,4.9 -0.7,5.6 -4,3.8 -2.9,-1.5 -3.2,-5.4 -1,-11.7 2.5,-7.3 2.5,-10.4 -0.1,-13.7000008 -3.3,-4.1999998 -8.9,-3.3999998 -11.5,1.6000008 -2,3.8 -1,4.8 1.8,1.8 2,-2.2 2.2,-2.2 3.5,-0.4 1.6000002,2.2 1.1000002,4 -3.3,11.3 -1.9,3.1 -3.4,6.6 -3.4,7.9 0,5.6 8.0000002,16.5 10.9,14.8 1.9,-1.2 3.2,2.1 2.2,6.3 -0.6,2.8 -0.5,4.5 0.3,5.5 1.6,2.2 5.8,3.5 9,2.9 2.8,-0.6 2.9,-0.5 2.1,2.3 -1.6,6 -1.3,6.9 2.3,6.6 1.7,-0.1 3.2,0.2 3.2,0.7 0,2.1 3.5,2.1 5.1,0 l 1.7,-2.2 0.6,2.1 c 0.8,2.6 2.8,2.8 4.6,0.7 0.8,-0.9 2.1,-1.3 3.2,-0.9 1,0.3 2.5,0 3.3,-0.6 1.3,-1 1.2,-1.7 0,-4.7 -2,-4.6 -2,-4.6 1.4,-4 1.7,0.4 4.1,-0.1 6.2,-1.1 3.3,-1.6 3.4,-1.9 3.4,-7.6 0,-5.4 0.2,-5.9 2.3,-6.1 3.2,-0.2 8,-5.2 9.2,-9.4 1.6,-5.9 1.2,-8.4 -2.5,-14.1 -3.8,-6 -4.6,-11 -1.8,-11 0.9,0 2.5,0.7 3.5,1.7 1.7,1.5 1.8,1.5 1.8,-0.1 0,-2.6 -4.6,-6.6000006 -7.5,-6.6000006 -2.9,0 -6.2,2.8999998 -7,6.2000006 -0.3,1.3 0.3,5 1.5,8.2 2.5,7.4 2.5,10.8 0,13.1 -3.2,2.9 -5,1.3 -5,-4.4 0,-3.4 -0.8,-6.5 -2.8,-10.3 -1.6,-3 -3.2,-6.6 -3.6,-8.1 -0.8,-3.5000006 0.9,-6.7000006 3.6,-6.7000006 1.7,0 1.8,-0.2 0.8,-1.5 -1.8,-2.19999 -6.5,-1.79999 -9.5,0.8 -3,2.5 -3.3,5.2999998 -2,17.2000006 0.6,6.4 0.5,7.2 -1.4,9.2 -2.7,2.8 -3.3,2.8 -5.7,0.2 -1.5,-1.7 -1.8,-3.3 -1.6,-7.8 1,-15.3000006 0.8,-17.2000006 -1.7,-19.2000006 -2.5,-1.99999 -6.7,-2.49999 -9.1,-0.9 z"
     inkscape:label="#path44" />
  <g
     id="Lifelink"
     inkscape:label="#g4319"
     transform="translate(-603.94642,-106.77319)"
     style="stroke:#000000;stroke-opacity:1;fill:#ffffff;fill-opacity:1">
    <path
       d="m 634.6,114.5 0.7,6.5 -2.9,0 c -1.6,0 -4.4,-0.4 -6.2,-0.9 l -3.2,-1 0,7.1 0,7 4.3,-0.7 c 2.3,-0.3 5.1,-0.9 6.1,-1.2 1.8,-0.5 1.9,-0.1 1.3,6.1 -0.5,5.4 -0.4,6.6 0.8,6.6 2.8,0 1.5,2.1 -2.1,3.6 l -3.6,1.5 3.4,3.7 c 1.8,2 4.2,4.9 5.3,6.5 l 2,2.7 4.2,-5.5 c 2.4,-3 4.7,-5.5 5.3,-5.5 2.3,0 0.8,-2.1 -2.5,-3.4 -3.8,-1.6 -4.7,-3.6 -1.6,-3.6 1.7,0 1.9,-0.4 1,-3.2 -0.5,-1.8 -0.9,-4.8 -0.9,-6.6 0,-2.8 0.3,-3.2 2.3,-2.8 1.2,0.3 3.9,0.8 6,1.1 l 3.7,0.6 0,-7 0,-7.1 -2.6,1 c -1.4,0.6 -4.1,1 -6.1,1 l -3.6,0 0.5,-4.8 c 0.3,-2.6 0.7,-5.4 0.9,-6.2 0.3,-1.2 -0.9,-1.6 -6.4,-1.8 l -6.8,-0.3 0.7,6.6 z"
       id="path42"
       inkscape:connector-curvature="0"
       style="fill:#ffffff;stroke:#000000;stroke-opacity:1;fill-opacity:1" />
    <path
       d="m 614,138.1 c -2.3,0.8 -2.5,1.5 -2.7,7.5 -0.4,9.2 2.2,14.9 10.2,22.2 3.5,3.1 9.2,7.2 12.8,9 l 6.5,3.3 4.3,-2.1 c 6.9,-3.5 16.3,-10.5 19.3,-14.4 4.4,-5.8 5.7,-10 5.4,-17.6 -0.3,-6.1 -0.6,-7 -2.6,-8 -3.8,-1.7 -11.7,-1.3 -13.5,0.8 -2.4,2.6 -2.1,3.2 1.3,2.6 4.2,-0.9 6,1 6,6.1 0,6.9 -7.1,14.6 -18.1,19.5 -2.9,1.3 -6.9,-0.2 -14.6,-5.9 -9.7,-7 -11.4,-21.2 -2.5,-19.9 3.6,0.5 4,-0.2 1.4,-2.5 -2,-1.9 -9,-2.2 -13.2,-0.6 z"
       id="path46"
       inkscape:connector-curvature="0"
       style="fill:#ffffff;stroke:#000000;stroke-opacity:1;fill-opacity:1" />
  </g>
  <path
     style="fill:#ffffff;stroke:#000000;stroke-opacity:1;fill-opacity:1"
     inkscape:connector-curvature="0"
     id="CantUntap"
     d="m 59.99282,5.3758294 -4.1,3.9999998 -5.8,-2.1999998 c -16.4,-6.40001004 -34.2,0.3 -41.9999998,15.7000006 C 5.59282,27.97582 5.19282,29.67582 5.29282,37.17582 c 0,6.8 0.5,9.5 2.3000002,13.3 l 2.4,4.8 -4.4000002,4.5 -4.3,4.4 4.3,4.4 4.4000002,4.5 4.4999998,-4 c 2.5,-2.1 4.8,-3.9 5.2,-3.9 0.4,0 2.9,1 5.6,2.1 6.1,2.8 15.9,3 23.1,0.5 6.6,-2.2 14.5,-9.2 18.1,-16 2.4,-4.5 2.7,-6.2 2.7,-14.6 0,-7.8 -0.4,-10.2 -2.2,-13.6 l -2.2,-3.99999 4,-4.7 c 3.8,-4.4 3.9,-4.700001 2.5,-7.0000006 -0.9,-1.2 -2.9,-3.3 -4.4,-4.4 l -2.9,-2.10001 -4,4.00001 z m -9.4,11.9000006 c 8.9,1.3 9,1.3 2.3,5 l -3,1.69999 3,6 c 4.2,8.4 4.8,17.2 1.6,22.6 -5.2,8.8 -15.7,10 -28.9,3.3 -4.1,-2 -8.7,-4.8 -10.4,-6.2 l -3,-2.5 3.6,-3.5 3.5,-3.6 5.3,3.5 c 6.8,4.6 14.8,7 18.5,5.7 2.3,-0.9 2.6,-1.6 2.6,-6.1 0,-4.8 -2.1,-11 -3.8,-11 -0.4,0 -1.8,1.8 -3.2,4 -1.4,2.2 -2.7,4 -3,4 -0.4,0 -0.4,-14.8 0,-24.89999 0,-0.2 1.5,-0.1 3.3,0.2 1.7,0.4 7,1.1 11.6,1.8 z"
     inkscape:label="#path48" />
  <path
     style="fill:#ffffff;stroke:#000000;stroke-opacity:1;fill-opacity:1"
     inkscape:connector-curvature="0"
     id="Fear"
     d="M 8.4043302,5.0915894 C 4.60433,9.0915892 1.10433,16.89159 1.10433,21.29159 c 0,5.2 8.5000002,16.2 12.6,16.2 0.8,0 1.7,0.6 2,1.3 1,2.6 -1.6,6.7 -6.5999998,10.3 -2.8000002,2 -5.0000002,4.4 -5.0000002,5.4 0,4 16.4,14.8 26.5,17.5 7.3,1.9 12.6,0.9 22.5,-4 7.4,-3.7 17,-10.9 17,-12.7 0,-0.7 -2.7,-3.7 -6,-6.8 -6.8,-6.3 -7.7,-9.4 -3.2,-11.1 6.2,-2.4 11.2,-10 11.2,-17.2 0,-5.1 -4,-13.8000006 -7.7,-16.7000006 -3.7,-2.90001004 -4.4,-2.50001004 -2.7,1.5 2,4.7999998 1.8,8.5000006 -0.8,11.2000006 l -2.1,2.3 -4,-3.6 c -2.1,-2 -7,-5.1000008 -10.9,-6.9000006 -6.9,-3.3 -7,-3.4 -10.6,-1.7 -7.3,3.3999998 -15.2,8.3000006 -16.2,10.2000006 -1.3,2.5 -3.6,1.6 -5.6,-2.2 -1.4,-2.8 -1.4,-3.4 0.1,-7.5000006 0.9,-2.4 1.4,-4.7 1.1,-5.00001 -0.3,-0.4 -2.3,1.20001 -4.2999998,3.30001 z M 22.10433,46.89159 c 0,1.1 0.9,3.9 1.8,6.1 l 1.8,4 1.3,-5 1.3,-5 1.9,2.4 c 1,1.3 1.9,2.9 1.9,3.7 0,2.1 1.4,1.7 2.5,-0.8 1.5,-3.2 3.2,-3.3 4.9,-0.1 l 1.5,2.8 1.5,-3.8 c 0.9,-2 2,-3.7 2.5,-3.7 1,0 2.1,3.5 2.1,6.9 0,3.8 2.2,1 4,-5.1 1.9,-6.4 4.5,-7.9 3.5,-2.2 -1.9,10.8 -4.8,16.4 -8.6,16.4 -1.1,0 -2.7,-1.3 -3.8,-3 l -1.8,-3 -1.1,2.5 c -1.4,3.1 -2.6,3.2 -4.6,0.3 l -1.5,-2.2 -2.1,2.7 c -2.6,3.3 -4.1,3.4 -6.6,0.4 -2.9,-3.2 -4.3,-7 -5.1,-13.5 -0.6,-5.2 -0.5,-5.6 1,-4.3 1,0.7 1.7,2.3 1.7,3.5 z"
     inkscape:label="#path52" />
  <path
     style="fill:#ffffff;stroke:#000000;stroke-opacity:1;fill-opacity:1"
     inkscape:connector-curvature="0"
     id="Haste"
     d="m 38.95567,3.3519994 c 0,0.7 1.3,5.2 2.9,10.0000006 1.7,4.8 2.6,8.7 2.1,8.7 -0.5,0 -5.3,-1.6 -10.7,-3.5 -5.4,-1.9 -10.4,-3.5 -11.1,-3.5 -0.8,0 1,2.7 3.8,6 2.9,3.4 5.1,6.2 4.9,6.4 -0.2,0.2 -5.6,1.8 -11.9,3.6 -6.3,1.9 -12.8,3.9 -14.5,4.6 l -3,1.3 3.6,1.5 c 2,0.8 8.5,3 14.5,4.7 6,1.7 11.1,3.3 11.3,3.5 0.2,0.2 -2,3 -4.9,6.4 -3.5,4 -4.7,6 -3.6,6 0.9,0 6.4,-1.8 12.2,-3.9 8.2,-3 10.4,-3.5 9.8,-2.2 -1.5,3.7 -6.2,18.6 -5.9,18.9 1,1 5.5,-3.1 18,-16 16.8,-17.5 17.2,-18 15.3,-21.1 -2.2,-3.3 -28.8,-30.6000006 -30.9,-31.8000006 -1.4,-0.7 -1.9,-0.6 -1.9,0.4 z"
     inkscape:label="#path58" />
  <path
     style="fill:#ffffff;stroke:#000000;stroke-opacity:1;fill-opacity:1"
     inkscape:connector-curvature="0"
     id="FirstStrike"
     d="m 44.8561,11.05835 c 0.3,2.2 0.9,5.5 1.2,7.4 l 0.6,3.6 -22.8,6.9 c -12.5,3.9 -22.9,7.5 -23.1,8.1 -0.3,0.9 12,5.1 37.9,12.9 l 8.6,2.6 -1.4,5.2 c -0.8,2.9 -1.4,6.3 -1.4,7.7 0,2.2 0.6,1.9 6.1,-3.5 9.5,-9.4 21.9,-23.3 21.9,-24.8 0,-1.6 -23.3,-27.2000008 -26.2,-28.8000006 -2,-1.1 -2.1,-1 -1.4,2.7000006 z"
     inkscape:label="#path60" />
  <g
     id="Legendary"
     inkscape:label="#g4323"
     transform="translate(-123.0515,-203.87827)"
     style="stroke:#000000;stroke-opacity:1;fill:#ffffff;fill-opacity:1">
    <path
       d="m 155,217.9 -4.2,13.1 -5.9,-7.7 c -3.3,-4.3 -6.4,-7.9 -6.9,-8.1 -0.5,-0.2 -0.7,1.2 -0.5,3 0.7,5.6 1.5,22.8 1,22.8 -0.2,0 -3.4,-2.3 -7.1,-5 -3.6,-2.8 -6.8,-4.9 -7,-4.7 -0.2,0.2 1.3,6.1 3.3,13.1 l 3.6,12.8 6.6,-0.7 c 14,-1.3 12.5,-0.1 17.2,-14.2 2.3,-6.9 4.5,-12.1 4.9,-11.6 0.4,0.4 2.4,6 4.5,12.3 2.1,6.3 3.8,11.6 3.9,11.7 0.1,0.1 4.4,0.7 9.5,1.3 7.4,0.9 9.5,0.9 10.1,-0.1 1.2,-1.8 7.4,-23.9 6.9,-24.4 -0.3,-0.2 -3.4,1.8 -6.9,4.5 -6.8,5.1 -8.2,5.8 -7.6,3.7 0.3,-0.6 0.7,-6.5 1,-13.1 0.7,-13.7 0.8,-13.7 -7.6,-2.4 l -5.1,7 -4,-12.3 c -2.1,-6.8 -4.3,-12.8 -4.7,-13.3 -0.5,-0.5 -2.7,5.1 -5,12.3 z"
       id="path54"
       inkscape:connector-curvature="0"
       style="fill:#ffffff;stroke:#000000;stroke-opacity:1;fill-opacity:1" />
    <path
       d="m 156.4,252.2 c -1.6,4.1 -3.5,7.4 -4.4,7.5 -0.8,0.1 -6.4,0.5 -12.3,0.8 -9.5,0.6 -10.8,0.9 -10.1,2.4 0.3,0.9 1.1,3.5 1.6,5.9 0.9,4 1.1,4.2 2.7,2.8 1.4,-1.2 4.1,-1.6 11.7,-1.6 l 10,0 1.8,3.2 1.9,3.1 2.6,-3.2 c 2.6,-3.1 2.7,-3.1 11.9,-3.1 6.8,0 9.9,0.4 11.7,1.6 2.5,1.6 2.5,1.6 2.5,-1.4 0,-1.7 0.5,-4.3 1.2,-5.7 0.6,-1.4 0.9,-2.7 0.7,-3 -0.3,-0.2 -5.8,-0.8 -12.3,-1.2 l -11.8,-0.8 -2.5,-6.5 c -1.3,-3.6 -2.8,-6.9 -3.2,-7.3 -0.4,-0.4 -2.1,2.5 -3.7,6.5 z"
       id="path62"
       inkscape:connector-curvature="0"
       style="fill:#ffffff;stroke:#000000;stroke-opacity:1;fill-opacity:1" />
  </g>
  <g
     id="DoubleStrike"
     inkscape:label="#g4306"
     transform="translate(-411.28274,-202.87682)"
     style="stroke:#000000;stroke-opacity:1;fill:#ffffff;fill-opacity:1">
    <path
       d="m 455,205.7 c 0,0.5 0.7,3.5 1.4,6.8 0.8,3.3 1.3,6.2 1,6.6 -0.2,0.4 -2.3,1.1 -4.6,1.7 -7,1.8 -40,12.1 -40.6,12.7 -0.3,0.3 15.5,0.5 35.2,0.5 l 35.7,0 -2,-2.8 C 478.2,227 456.9,205 455.9,205 c -0.5,0 -0.9,0.3 -0.9,0.7 z"
       id="path56"
       inkscape:connector-curvature="0"
       style="fill:#ffffff;stroke:#000000;stroke-opacity:1;fill-opacity:1" />
    <path
       d="m 412.2,246.5 c 0.5,0.6 33.7,10.9 40.6,12.7 2.3,0.6 4.4,1.3 4.6,1.7 0.3,0.4 -0.2,3.5 -1,7 -0.8,3.5 -1.3,6.8 -1.2,7.3 0.4,1.1 22.3,-21.3 25.9,-26.3 l 2,-2.9 -35.7,0 c -19.7,0 -35.5,0.2 -35.2,0.5 z"
       id="path64"
       inkscape:connector-curvature="0"
       style="fill:#ffffff;stroke:#000000;stroke-opacity:1;fill-opacity:1" />
  </g>
  <g
     id="Intimidate"
     inkscape:label="#g4327"
     transform="translate(-219.6203,-202.06705)"
     style="stroke:#000000;stroke-opacity:1;fill:#ffffff;fill-opacity:1">
    <path
       d="m 254.6,207.5 c -0.9,2.2 -2,4.6 -2.4,5.3 -0.6,1.1 -9.4,5.3 -14.4,6.9 -0.9,0.3 -4.4,-1.1 -7.8,-3.1 -3.5,-2 -6.7,-3.5 -7.2,-3.4 -0.5,0.2 1.4,3.3 4.2,7 4.6,6 5.2,7.3 5.7,13 0.9,10.9 0.2,15.3 -3.4,21.5 -1.4,2.3 -2.3,5 -2.1,6 0.3,1.5 1.2,1 5,-2.5 4,-3.7 11.2,-7.2 12.4,-6 0.2,0.2 -0.2,2 -0.8,4 -1.1,3.6 -0.5,8.8 1.1,8.8 0.5,0 1.4,-1.4 2.1,-3.1 1.2,-2.8 1.6,-3 4.4,-2.4 4.1,1 6.5,1 9.9,0 2.5,-0.7 2.9,-0.4 4,2.4 0.6,1.7 1.6,3 2.2,2.8 1.4,-0.5 1.8,-6.3 0.6,-9.8 l -1,-3 3.7,0.7 c 2.3,0.4 5.5,2.3 8.6,5 4.4,4 6.6,5.3 6.6,3.9 0,-0.3 -1.3,-3.1 -2.9,-6.3 -3.5,-7 -4.3,-12.5 -3.3,-21.7 0.7,-6.4 1.3,-7.7 5.6,-13.4 2.6,-3.4 4.6,-6.5 4.3,-6.7 -0.3,-0.3 -3.7,1.2 -7.6,3.3 -6.3,3.4 -7.2,3.7 -9.2,2.4 -1.3,-0.7 -4.5,-2.1 -7.3,-3.1 -4.7,-1.5 -5.2,-2.1 -7.2,-7.1 l -2.2,-5.4 -1.6,4 z"
       id="path50"
       inkscape:connector-curvature="0"
       style="fill:#ffffff;stroke:#000000;stroke-opacity:1;fill-opacity:1" />
    <path
       d="m 237.6,259.9 c -1.1,1.2 -1.9,3.7 -2,5.8 -0.1,3.2 0.2,3.8 2.2,4.1 1.7,0.3 2.2,1 2.2,3.3 0,3.4 0.4,3.5 7.2,0.9 6.7,-2.5 11.4,-2.5 17.8,0 7.1,2.8 8.1,2.7 7.4,-1 -0.6,-2.5 -0.3,-3 1.4,-3 3.8,0 4.5,-2.4 2.3,-7.4 -2.3,-5.2 -4.1,-6 -4.1,-1.8 0,5.8 -7.7,9.6 -10.1,4.9 -1.7,-3.2 -1.7,-3.2 -3.9,-0.6 l -2,2.4 -1.8,-2.3 -1.8,-2.4 -1.7,2.6 c -1,1.4 -2.6,2.6 -3.6,2.6 -2.9,0 -6.2,-3.2 -6.9,-6.9 l -0.7,-3.3 -1.9,2.1 z"
       id="path66"
       inkscape:connector-curvature="0"
       style="fill:#ffffff;stroke:#000000;stroke-opacity:1;fill-opacity:1" />
  </g>
  <path
     style="fill:#ffffff;stroke:#000000;stroke-opacity:1;fill-opacity:1"
     inkscape:connector-curvature="0"
     id="Flying"
     d="m 1.10456,2.8147094 c 0,0.5 0.9,1.7 2,2.7 5.8000002,5.2000006 6.4000002,16.7000006 1.2,24.0000006 l -3,4.3 3.7,2.5 c 4.7000002,3.1 7.5,8.7 6.7,13.2 -0.6,3 -0.4,3.3 2.6,3.9 4.2,0.8 7.7,3.2 8.7,5.9 0.5,1.4 1.7,2.2 3.2,2.2 1.8,0 3.4,1.5 6.3,5.9 3.5,5.2 4.1,5.7 5,4.1 3.2,-5.3 7.4,-10 9.2,-10 1,0 2.8,-1.4 3.9,-3 1.3,-1.9 3.6,-3.5 6.6,-4.5 4.6,-1.4 4.6,-1.5 4.2,-5.5 -0.5,-5 2.2,-9.7 7.3,-12.7 3.5,-2.1 3.5,-2.1 1.6,-4.2 -5.5,-6 -6.7,-14.8 -3.1,-22.4000008 1.2,-2.3999998 2.8,-4.5999998 3.5,-4.8999998 0.8,-0.3 1.4,-1 1.4,-1.5 0,-1.20001 -6.6,-0.5 -13.2,1.2 -5.4,1.5 -10.7,6.5000006 -13.5,12.8000006 -1.3,2.9 -2.8,5 -3.3,4.7 -1.9,-1.2 -1,2.4 1.6,6.2 3.1,4.6 2.8,8.7 -1.2,14.5 -5.1,7.4 -7.3,7.2 -12.6,-1.1 -3.5,-5.5 -3.6,-9.7 -0.3,-14.1 2.7,-3.7 3.3,-6.2 1.1,-5.4 -0.9,0.3 -1.8,-0.6 -2.5,-2.8 -2.2,-6.3 -5.8,-10.5000006 -11.3,-13.1000006 -5.6,-2.7 -15.8,-4.60001 -15.8,-2.9 z"
     inkscape:label="#path68" />
  <path
     style="fill:#ffffff;stroke:#000000;stroke-opacity:1;fill-opacity:1"
     inkscape:connector-curvature="0"
     id="Annihilator"
     d="m 1.44663,2.3627794 c 0,0.4 0.9,3.4 2,6.6999998 l 2,6.0000008 -2,5.9 c -1.1,3.2 -1.8,6 -1.7,6.2 0.2,0.2 2.3,-0.4 4.7,-1.2 2.3000002,-0.8 4.9,-1.5 5.7,-1.5 0.7,0 5.2,2.9 9.9,6.4 l 8.5,6.4 -7.8,5.9 c -10.5,8 -9.7,7.7 -15.4,5.8 -2.8,-1 -5.2,-1.5 -5.5,-1.3 -0.2,0.3 0.5,3 1.5,6.1 1.9,5.5 1.9,5.6 0,11.80001 -1.1,3.4 -1.8,6.4 -1.6,6.5 0.2,0.2 3.2,-0.6 6.6000002,-1.7 l 6.1999998,-2.1 5.6,2.1 c 3.1,1.2 5.8,1.9 6,1.7 0.3,-0.3 -0.2,-2.7 -1.2,-5.5 -0.9,-2.80001 -1.3,-5.60001 -0.9,-6.30001 2.9,-5 12.8,-16.8 13.4,-16.1 0.4,0.4 3.4,4.4 6.7,8.8 l 6,8 -1.8,5.40001 c -1.1,3 -1.7,5.6 -1.6,5.8 0.2,0.2 3,-0.6 6.2,-1.7 5.5,-1.9 6,-1.9 11.4,-0.4 3.1,0.9 6.1,1.9 6.8,2.1 0.7,0.3 0.4,-1.9 -1,-6.2 l -2.2,-6.60001 2.1,-6 c 1.2,-3.2 1.8,-5.9 1.4,-5.9 -0.3,0 -3,0.7 -5.8,1.5 l -5.1,1.6 -8.3,-6.2 c -4.6,-3.4 -8.4,-6.5 -8.6,-6.9 -0.3,-0.9 15.7,-13 17.4,-13 0.6,0 3.1,0.7 5.4,1.5 2.3,0.8 4.6,1.5 5,1.5 0.5,0 -0.1,-2.8 -1.2,-6.3 l -2.1,-6.4 2.1,-6.1000006 c 1.1,-3.4 1.8,-6.2 1.4,-6.2 -0.4,0 -3.4,0.8 -6.8,1.9 -6.1,1.8 -6.1,1.8 -12.3,-0.4 -5.4,-2 -6.2,-2.09999 -5.6,-0.6 0.4,0.9 1.1,3.7 1.7,6.1999998 l 1.1,4.6000008 -6.2,8.2 c -3.4,4.4 -6.5,8.1 -6.9,8.1 -0.5,0 -3.6,-3.8 -7.1,-8.5 l -6.3,-8.5 1.7,-5.1000006 c 0.9,-2.7 1.5,-5.3 1.2,-5.6 -0.3,-0.3 -3.1,0.4 -6.1,1.6 l -5.6,2.1 -6.4999998,-2.4 c -3.6000002,-1.3 -6.5000002,-2 -6.5000002,-1.7 z"
     inkscape:label="#path74" />
  <g
     id="Prevent"
     inkscape:label="#g4336"
     transform="translate(-123.89566,-299.0899)"
     style="stroke:#000000;stroke-opacity:1;fill:#ffffff;fill-opacity:1">
    <path
       d="m 150.3,302.4 c -10.3,3.4 -17.6,9.8 -22.2,19.6 -2.2,4.6 -2.6,6.9 -2.6,14.5 0,7.6 0.4,9.9 2.6,14.6 3.6,7.6 8.6,12.9 16.1,17 5.9,3.2 6.9,3.4 15.8,3.4 8.2,0 10.3,-0.4 15.1,-2.6 7.9,-3.7 13.3,-9 17.1,-16.7 3,-6 3.3,-7.5 3.3,-15.7 0,-7.7 -0.4,-9.8 -2.7,-14.7 -3.4,-7.3 -10.4,-14.3 -17.6,-17.6 -6.8,-3.1 -18.4,-4 -24.9,-1.8 z m 20.7,9.7 c 12.7,5.7 18.8,19.5 14.8,33.3 -1.6,5.5 -10.9,14.8 -16.4,16.4 -13.5,4 -27.3,-1.7 -33,-13.6 -2.6,-5.4 -3,-15.3 -0.9,-20.9 5.4,-14.1 22.2,-21.2 35.5,-15.2 z"
       id="path76"
       inkscape:connector-curvature="0"
       style="fill:#ffffff;stroke:#000000;stroke-opacity:1;fill-opacity:1" />
    <path
       d="m 155,314.9 c -2.4,0.6 -2.5,1.1 -2.8,8.4 l -0.3,7.7 -6.9,4 -6.9,4 1.5,4.2 c 1.6,4.5 5.9,10.8 7.4,10.8 0.5,0 3.8,-1.7 7.3,-3.9 l 6.3,-3.8 6.9,4 6.8,4.1 2.8,-3.4 c 1.6,-1.8 3.5,-5.3 4.3,-7.7 l 1.5,-4.3 -3.7,-2.3 c -2,-1.3 -5.2,-3.2 -6.9,-4.2 -3.3,-1.9 -3.3,-2 -3.3,-9.6 l 0,-7.6 -3.7,-0.7 c -4.5,-0.7 -6.9,-0.6 -10.3,0.3 z"
       id="path78"
       inkscape:connector-curvature="0"
       style="fill:#ffffff;stroke:#000000;stroke-opacity:1;fill-opacity:1" />
  </g>
  <g
     id="BattleCry"
     inkscape:label="#g4340"
     transform="translate(-503.15175,-299.41214)"
     style="stroke:#000000;stroke-opacity:1;fill:#ffffff;fill-opacity:1">
    <path
       d="m 530.8,301.2 c -2.4,0.8 -2.8,1.5 -2.8,4.7 0,3.8 -0.1,3.8 -3.7,3.7 -3.4,-0.1 -3.9,0.2 -4.9,3.4 -0.9,2.8 -0.9,4 0.2,6.2 1.9,3.7 1.8,3.8 -1.5,2.5 -3.7,-1.4 -6.1,0.3 -6.1,4.3 0,2.1 1.2,3.6 5.7,6.9 5.1,3.8 5.8,4 7.7,2.7 1.3,-0.8 2.1,-2.4 2.1,-4 -0.1,-2.8 0,-2.9 3,-1.7 1.3,0.6 3,0.3 4.8,-0.7 2.8,-1.7 3.3,-3.1 1.9,-4.7 -0.5,-0.6 -2.1,-3.2 -3.7,-6 l -2.9,-5 2.7,1.8 c 2.5,1.6 3,1.6 5.7,0.2 1.8,-0.9 3,-2.3 3,-3.6 0,-1.6 0.4,-1.8 1.8,-1 1.1,0.6 2.8,0.5 5,-0.4 2.8,-1.3 3.1,-1.7 2.2,-3.9 -2.6,-6.9 -6.1,-8.5 -10.1,-4.5 l -2.1,2.1 -2.2,-2.1 c -1.2,-1.2 -2.4,-2.1 -2.7,-2 -0.2,0 -1.6,0.5 -3.1,1.1 z"
       id="path70"
       inkscape:connector-curvature="0"
       style="fill:#ffffff;stroke:#000000;stroke-opacity:1;fill-opacity:1" />
    <path
       d="m 546.7,314.1 c -8.8,4.5 -9.6,5.1 -8.7,6.9 1.3,2.5 4.8,3.4 10.5,2.8 2.4,-0.3 4.6,-0.4 4.9,-0.1 0.2,0.2 -2.9,3.7 -6.8,7.6 -8.1,8.1 -12.3,15.6 -13.3,23.6 -0.7,6.5 -2.3,4.8 -2.3,-2.7 0,-6.3 1.6,-10.6 5.9,-15.4 1.7,-2 3.1,-3.8 3.1,-4.1 0,-1.1 -6.2,1.2 -11.7,4.3 -4.7,2.7 -5.9,3 -8.4,2.1 -2.5,-0.9 -2.9,-0.8 -2.9,0.9 0,2.6 2.9,10.1 4.9,12.3 1,1.2 1.5,3.9 1.6,7.5 l 0,5.7 5,0.5 c 2.8,0.3 7.6,1.8 10.7,3.3 3.1,1.5 8,3.1 10.9,3.4 l 5.2,0.6 -0.7,-11.8 -0.8,-11.7 7.2,-10.5 c 6.7,-9.7 7.2,-10.7 6,-13.1 -1.1,-2.7 -10,-17.2 -10.3,-17.1 -0.1,0 -4.6,2.2 -10,5 z"
       id="path84"
       inkscape:connector-curvature="0"
       style="fill:#ffffff;stroke:#000000;stroke-opacity:1;fill-opacity:1" />
  </g>
  <g
     id="Copy"
     inkscape:label="#g4348"
     transform="translate(-603.46687,-299.18651)"
     style="stroke:#000000;stroke-opacity:1;fill:#ffffff;fill-opacity:1">
    <path
       d="m 605.1,301.4 c -0.8,0.9 -1.1,9.4 -0.9,28.7 l 0.3,27.4 10.7,0.3 10.7,0.3 0.3,-21.7 c 0.4,-26.3 -0.1,-25.4 13.9,-25.4 l 8.9,0 0,-4.5 c 0,-3.4 -0.5,-4.7 -1.9,-5.5 -1.2,-0.6 -9.9,-1 -21.4,-1 -15.3,0 -19.7,0.3 -20.6,1.4 z"
       id="path72"
       inkscape:connector-curvature="0"
       style="fill:#ffffff;stroke:#000000;stroke-opacity:1;fill-opacity:1" />
    <path
       d="m 633.3,316 -2.3,0.9 0,26.9 c 0,21.7 0.3,27.2 1.4,28.1 0.9,0.8 7.7,1.1 22.2,0.9 l 20.9,-0.3 0.3,-27.8 0.2,-27.7 -2.5,-1 c -3.3,-1.2 -37.2,-1.2 -40.2,0 z"
       id="path86"
       inkscape:connector-curvature="0"
       style="fill:#ffffff;stroke:#000000;stroke-opacity:1;fill-opacity:1" />
  </g>
  <g
     id="Defender"
     inkscape:label="#g4331"
     transform="translate(-219.89566,-299.25648)"
     style="stroke:#000000;stroke-opacity:1;fill:#ffffff;fill-opacity:1">
    <path
       d="m 231,305.3 c 0,3.1 0.5,4.5 2,5.5 1.1,0.7 2,2.3 2,3.7 l 0,2.5 21.5,0 21.5,0 0,-2.5 c 0,-1.4 0.9,-3 2,-3.7 1.5,-1 2,-2.4 2,-5.5 0,-4.2 -0.1,-4.3 -3.4,-4.3 -3.5,0 -4.6,1.3 -4.6,5.1 0,1.4 -0.7,1.9 -3,1.9 -2.8,0 -3,-0.3 -3,-3.5 0,-3.4 -0.1,-3.5 -4,-3.5 -3.9,0 -4,0.1 -4,3.5 0,3.2 -0.3,3.5 -2.9,3.5 -2.5,0 -3,-0.5 -3.5,-3.5 -0.7,-3.3 -0.9,-3.5 -4.6,-3.5 -3.9,0 -4,0.1 -4,3.5 0,3.2 -0.2,3.5 -3,3.5 -2.3,0 -3,-0.5 -3,-1.9 0,-3.8 -1.1,-5.1 -4.6,-5.1 -3.3,0 -3.4,0.1 -3.4,4.3 z"
       id="path80"
       inkscape:connector-curvature="0"
       style="fill:#ffffff;stroke:#000000;stroke-opacity:1;fill-opacity:1" />
    <path
       d="m 234,321 c 0,0.6 0.7,2.4 1.5,4 l 1.6,3 19.4,0 19.4,0 1.6,-3 c 0.8,-1.6 1.5,-3.4 1.5,-4 0,-0.7 -7.5,-1 -22.5,-1 -15,0 -22.5,0.3 -22.5,1 z"
       id="path88"
       inkscape:connector-curvature="0"
       style="fill:#ffffff;stroke:#000000;stroke-opacity:1;fill-opacity:1" />
    <path
       d="m 237.9,333.7 c -0.5,1.4 -1.7,6.9 -2.6,12.1 -1.5,9 -1.5,9.9 0.2,14.8 1.7,4.9 1.7,5.5 0.1,7.8 -0.9,1.4 -1.6,2.8 -1.6,3.1 0,0.3 10.4,0.5 23,0.5 l 23.1,0 -2.3,-3 c -2.2,-3 -2.2,-3 -0.4,-8.1 2,-5.6 1.8,-10.7 -1,-23.1 l -1.6,-6.8 -17.9,0 -17.9,0 -1.1,2.7 z"
       id="path90"
       inkscape:connector-curvature="0"
       style="fill:#ffffff;stroke:#000000;stroke-opacity:1;fill-opacity:1" />
  </g>
  <g
     id="Infect"
     inkscape:label="#g4310"
     transform="translate(-312.83116,-299.33775)"
     style="stroke:#000000;stroke-opacity:1;fill:#ffffff;fill-opacity:1">
    <path
       d="m 338.1,304 c -4.7,2.4 -7,4.4 -9.1,7.7 -2.6,4.1 -2.8,5 -2.6,14 0.3,10.9 1.3,12.6 7.8,12.1 2,-0.1 4,0 4.3,0.3 0.3,0.3 -0.1,2.2 -1,4.1 -1.3,3.2 -1.3,3.7 0.1,4.9 1.1,0.9 1.8,0.9 2.6,0.1 0.8,-0.8 1.8,-0.6 3.7,0.9 l 2.6,2.1 1.4,-2.1 c 1.6,-2.4 3.1,-2.7 3.1,-0.7 0,2.6 2.1,2.9 4.4,0.7 1.5,-1.4 2.5,-1.8 3.2,-1.1 1.9,1.9 4.6,0 4,-2.6 -2,-7.9 -2.2,-7.3 2.1,-6.7 3.2,0.4 4.5,0.1 6.7,-1.9 2.5,-2.1 2.6,-2.6 1.6,-5 -0.9,-1.9 -0.9,-3.9 -0.2,-7.4 0.8,-3.8 0.7,-5.6 -0.4,-8.3 -3.3,-8 -11.3,-13.2 -21.2,-13.8 -6,-0.4 -7.3,-0.1 -13.1,2.7 z"
       id="path82"
       inkscape:connector-curvature="0"
       style="fill:#ffffff;stroke:#000000;stroke-opacity:1;fill-opacity:1" />
    <path
       d="m 316.6,339.9 c -1.2,1.3 -1.5,2.7 -1.1,4.1 0.4,1.3 0.2,3.3 -0.5,4.6 -1.8,3.3 0.2,5.4 5.1,5.4 2.1,0 7.5,1.2 12.1,2.6 l 8.3,2.7 -3.5,1.5 c -2.3,0.9 -5.2,1.2 -8.2,0.9 -4.4,-0.6 -4.8,-0.4 -4.8,1.5 0,3.6 2.3,8.8 3.9,8.8 0.9,0 6.2,-2 11.8,-4.5 l 10.1,-4.6 9.8,4.6 c 5.3,2.5 10.5,4.5 11.4,4.5 1.9,0 5.6,-8.2 4.5,-10 -0.3,-0.5 -2.4,-0.7 -4.9,-0.4 -2.5,0.4 -6,0.1 -8.2,-0.6 l -3.9,-1.3 6.5,-2.4 c 3.6,-1.4 9.4,-2.8 13,-3.1 l 6.5,-0.7 -0.3,-6 c -0.3,-4.2 -0.9,-6.6 -2.2,-7.9 -1.9,-1.9 -2,-1.9 -5.7,2.2 -2.9,3.2 -6.5,5.4 -15.3,9.2 l -11.4,5.1 -11,-4.8 c -8,-3.5 -12.2,-6 -15.2,-9.1 -2.3,-2.3 -4.4,-4.2 -4.7,-4.2 -0.2,0 -1.2,0.9 -2.1,1.9 z"
       id="path92"
       inkscape:connector-curvature="0"
       style="fill:#ffffff;stroke:#000000;stroke-opacity:1;fill-opacity:1" />
  </g>
  <path
     style="fill:#ffffff;stroke:#000000;stroke-opacity:1;fill-opacity:1"
     inkscape:connector-curvature="0"
     id="Regeneration"
     d="m 24.71397,3.5752894 c -11,5.7999998 -17.8,22.1000006 -14.1,33.4000006 1.1,3.2 1.5,3.5 3.1,2.5 1.4,-0.9 2.2,-0.9 3.4,0.1 2.1,1.8 9.6,15.4 9.6,17.5 0,2.1 -5.3,5.3 -10,6.1 -4.9,0.8 -11.3,-1.7 -10.8,-4.2 0.2,-1.2 1.4,-1.9 3.6000002,-2.1 3.6999998,-0.4 3.8999998,-1.1 1.3999998,-4.2 -2.1999998,-2.8 -7,-3 -8.9,-0.4 -0.7,1 -1.3,3.5 -1.3,5.6 0,3.2 0.7,4.6 4.3,8.1 9.2,9.3 26.5,9.1 36.9,-0.4 3.8,-3.5 4.1,-4 2.6,-4.9 -1,-0.6 -1.8,-1.9 -1.8,-2.8 0,-2.6 9.29999,-17.6 11.09999,-18 1.9,-0.4 7.6,3.5 10.2,7 1.1,1.4 2,4.3 2.1,6.5 0.1,3.2 -0.2,3.8 -1.9,3.8 -1.1,0 -2.4,-1 -3,-2.3 -1.3,-2.8 -2.3,-2.8 -3.6,0.2 -2.7,5.8 2.3,11 7.9,8.4 1.5,-0.7 3.7,-3.3 5,-5.8 5.6,-10.7 -1.2,-27.1 -13.9,-33.6 -4.9,-2.4 -10.59999,-3.3 -9.39999,-1.4 0.4,0.6 0.1,1.7 -0.5,2.5 -0.9,1.1 -3.7,1.5 -11.1,1.5 -8.7,0 -9.9,-0.2 -10.9,-1.9 -2.4,-4.6 0.7,-14.4 5.7,-17.6000006 2.3,-1.5 2.7,-1.5 4.1,-0.2 1.4,1.4 1.3,1.8 -0.1,4.0000006 -0.9,1.4 -1.3,2.7 -1,3.1 1.5,1.5 5.3,0.4 7.2,-2.1 5.9,-7.4000006 -6,-13.6000067 -15.9,-8.4000006 z"
     inkscape:label="#path94" />
  <g
     id="Plainswalk"
     inkscape:label="#g4357"
     transform="translate(-219.22742,-396.58737)"
     style="stroke:#000000;stroke-opacity:1;fill:#ffffff;fill-opacity:1">
    <path
       d="m 248.2,406.5 c -6.3,5.5 -14.1,10.9 -25.5,17.9 l -2.7,1.7 2.4,4.7 c 3.6,7.1 7.6,18.7 9.6,28 1,4.6 2,8.6 2.2,8.8 0.3,0.2 4.2,-0.1 8.9,-0.7 4.9,-0.7 12.7,-0.8 18.9,-0.4 5.8,0.4 11.8,0.8 13.3,0.8 2.8,0.2 2.9,0 5.8,-11.3 1.6,-6.3 4.8,-15.7 7,-20.8 2.2,-5.2 3.9,-9.6 3.7,-9.7 -0.2,-0.2 -3.9,-2.4 -8.2,-4.9 -9.1,-5.4 -13.9,-8.9 -21.3,-15.8 -2.8,-2.6 -5.5,-4.8 -6,-4.8 -0.4,0.1 -4.1,3 -8.1,6.5 z m 10.2,7.4 c -0.4,1.8 0,3.8 1,5.3 0.9,1.4 1.4,3.2 1.1,4 -0.4,0.9 0.1,1.8 1,2.2 2.2,0.8 3.5,-0.1 3.5,-2.4 0,-2.8 1.5,-3.3 7.2,-2.5 l 5.1,0.7 -3.1,1.4 c -2.6,1 -3.2,1.9 -3.2,4.2 0,1.7 -0.6,3.2 -1.5,3.6 -0.8,0.3 -1.5,1 -1.5,1.6 0,1.9 3,2.3 4.9,0.6 1.7,-1.5 2,-1.5 3.9,0.1 1.1,1 2.8,3 3.7,4.5 l 1.7,2.7 -3.2,-1.2 c -2.7,-1 -3.3,-1 -4.4,0.6 -0.7,0.9 -2.5,1.7 -3.9,1.7 -1.4,0 -2.9,0.5 -3.2,1 -0.9,1.5 1.4,4 3.7,4 2.5,0 3,1.6 2,7 l -0.8,4.5 -1.5,-3 c -1.2,-2.4 -2,-2.9 -4.1,-2.7 -1.9,0.2 -3,-0.4 -3.8,-1.8 -0.9,-1.7 -1.4,-1.9 -2.6,-0.9 -1.8,1.5 -1.8,2.8 0.1,5 1.5,1.5 1.2,2 -2.6,5.3 -2.3,2 -4.4,3.4 -4.6,3.2 -0.2,-0.2 0.2,-1.5 0.8,-3 1,-2.2 0.9,-2.9 -0.4,-4.4 -1,-1 -1.7,-2.8 -1.7,-4 0,-1.1 -0.4,-2.3 -0.9,-2.6 -1.8,-1.1 -4.1,0.6 -4.1,3 0,2.2 -0.4,2.4 -5.7,2.4 -5.7,0 -6.1,-0.4 -2.1,-2.4 1.3,-0.6 2.5,-2.3 2.6,-3.6 0.2,-1.4 1,-3.2 1.8,-4.1 1.1,-1.2 1.1,-1.8 0.2,-2.7 -1.6,-1.6 -3.5,-1.5 -4.2,0.3 -0.9,2.4 -3.2,1.7 -5.8,-1.8 -4.1,-5.3 -4.3,-6.1 -2,-4.8 3,1.6 5.9,1.4 6.6,-0.5 0.4,-1 1.4,-1.4 2.6,-1.1 2.7,0.7 4.7,-1.8 3,-3.8 -0.7,-0.8 -2.1,-1.5 -3.1,-1.5 -2.5,0 -2.8,-0.8 -2.2,-6.3 0.5,-4.5 2.3,-6.7 2.3,-2.8 0,2.4 1.8,3.6 4.7,3.3 1.3,-0.2 2.6,0.4 3.2,1.7 1.3,2.3 3.8,1.8 4.4,-0.7 0.2,-1 -0.4,-2.5 -1.2,-3.6 -1.5,-1.7 -1.3,-2.1 2.3,-5.2 2.2,-1.9 4.1,-3.4 4.2,-3.4 0.2,0 0.1,1.3 -0.2,2.9 z"
       id="path98"
       inkscape:connector-curvature="0"
       style="fill:#ffffff;stroke:#000000;stroke-opacity:1;fill-opacity:1" />
    <path
       d="m 248.4,429.4 c -5.6,5.6 -4.4,13.5 2.6,17.1 7.9,4.1 15.9,-0.7 16,-9.7 0,-3.9 -0.5,-5.2 -3.1,-7.7 -2.5,-2.6 -3.9,-3.1 -7.6,-3.1 -3.8,0 -5,0.5 -7.9,3.4 z m 14.7,0.5 c 4.9,4.9 3.8,12.5 -2.3,15.7 -4.2,2.2 -9,1.1 -12.2,-2.7 -8,-9.5 5.7,-21.7 14.5,-13 z"
       id="path100"
       inkscape:connector-curvature="0"
       style="fill:#ffffff;stroke:#000000;stroke-opacity:1;fill-opacity:1" />
  </g>
  <path
     style="fill:#ffffff;stroke:#000000;stroke-opacity:1;fill-opacity:1"
     inkscape:connector-curvature="0"
     id="Islandwalk"
     d="m 29.53139,9.2203192 c -6.6,6.0000008 -20.3999998,15.7000008 -25.7,18.1000008 -3.2,1.5 -3.3,1.2 1.8,12.7 2.0000002,4.6 4.9,13.39999 6.5,19.49999 l 2.7,11.20001 7.4,-0.5 c 10.5,-0.7 21.3,-0.6 29.5,0.2 l 7,0.8 2.7,-10.70001 c 1.5,-5.9 4.4,-14.49999 6.3,-19.19999 5.4,-13.1 5.5,-12.3 -1.8,-16.4 -7.4,-4.2 -21.1,-14.2 -25.2,-18.6000006 -1.7,-1.7 -3.3,-3.1 -3.8,-3.1 -0.4,0 -3.7,2.7 -7.4,5.9999998 z m 11.1,14.8000008 c 0.1,5.2 0.5,6.4 5.3,13.6 5.7,8.6 6.4,12.2 3.6,18.19999 -2.3,4.7 -7,7.4 -13.2,7.4 -4.3,0 -5.7,-0.5 -8.6,-3 -6.6,-5.8 -7.1,-14.49999 -1.6,-24.79999 2.9,-5.4 12.4,-17.2 13.8,-17.2 0.4,0 0.7,2.6 0.7,5.8 z"
     inkscape:label="#path102" />
  <path
     style="fill:#ffffff;stroke:#000000;stroke-opacity:1;fill-opacity:1"
     inkscape:connector-curvature="0"
     id="Swampwalk"
     d="m 29.54917,8.9216994 c -5,4.8000006 -24.5,18.5000006 -27.7,19.5000006 -0.6,0.2 0.8,4.7 3.1,9.9 2.3,5.3 5.4,14.80001 7,21.00001 l 2.8,11.4 6.4,-0.5 c 9.3,-0.7 23.4,-0.6 31,0.3 l 6.5,0.7 2.6,-10.3 c 1.4,-5.7 4.2,-14.40001 6.3,-19.30001 5.6,-13.5 5.7,-12.4 -2.7,-17.3 -7.6,-4.6 -21.9,-15.3000008 -25.2,-19.0000006 -1.1,-1.1 -2.4,-2.1 -3,-2.1 -0.6,0.1 -3.8,2.6 -7.1,5.7 z m 16.5,10.9000006 c 4.6,1.9 4.9,2.7 1.8,4.8 -2.6,1.8 -2,2 1.8,0.6 3.3,-1.3 4.5,-0.4 7.3,5.5 2.2,4.8 2.7,11.4 1.1,14.5 -0.5,1 -2.4,2.1 -4.2,2.5 -7.1,1.4 -6.8,1 -6.8,9.10001 0,4.1 -0.2,7.4 -0.4,7.4 -0.2,0 -1.1,0.3 -2,0.6 -1.3,0.5 -1.6,-0.1 -1.6,-2.9 0,-2 -0.4,-3.9 -1,-4.2 -0.5,-0.3 -1,0.3 -1,1.4 0,1.2 -0.2,2.1 -0.4,2.1 -0.2,0 -1.1,0.3 -1.9,0.6 -1.2,0.4 -1.4,0 -1,-1.4 0.2,-1.1 0,-2.2 -0.5,-2.6 -0.5,-0.3 -1.3,1 -1.6,3 -0.8,3.9 -2.9,4.2 -3.4,0.3 -0.6,-4.2 -2.2,-4.6 -2.2,-0.5 0,3 -0.3,3.7 -1.7,3.4 -1.5,-0.3 -1.8,-1.5 -1.9,-6.8 0,-3.6 -0.3,-7.00001 -0.7,-7.60001 -0.4,-0.6 -2.4,-1.4 -4.6,-1.8 -2.2,-0.3 -4.7,-1.3 -5.5,-2.2 -3.5,-3.5 -0.8,-16.2 4.4,-20.9 1.9,-1.7 2,-1.7 2.9,0.9 0.6,1.4 1.5,2.6 2,2.6 0.5,0 1.7,0.3 2.6,0.6 1,0.4 0.7,-0.4 -1,-2 -5,-5 -1.3,-8.6 9.2,-8.6 3.5,0 8.1,0.7 10.3,1.6 z"
     inkscape:label="#path104" />
  <path
     style="fill:#ffffff;stroke:#000000;stroke-opacity:1;fill-opacity:1"
     inkscape:connector-curvature="0"
     id="Mountainwalk"
     d="m 34.37582,4.7416394 c -2.7,3.3 -17.8,14.7000006 -25.6999998,19.6000006 -4.7000002,2.8 -8.1000002,5.5 -7.8000002,6.2 5.9,12.9 12.6,33.4 12.6,38.5 0,1.4 2.8,1.6 22.5,1.6 l 22.6,0 0.6,-2.5 c 3.5,-15.6 10.1,-35.2 12.4,-36.6 1.9,-1.1 0.6,-2.4 -7,-6.8 -7.7,-4.4 -21.2,-14.49999 -24,-18.0000006 -2.5,-3 -4.8,-3.7 -6.2,-2 z m 11.1,16.8000006 c 2.2,1.5 5.1,4.7 6.5,7.4 l 2.6,4.7 -0.5,-3.8 c -0.7,-5.3 1.1,-3.7 2.9,2.8 1.5,4.9 1.5,5.7 0,9.2 -0.9,2.1 -3,5.3 -4.7,7 -3.6,3.8 -2.1,4.4 3,1.3 3.9,-2.4 4.1,-1.1 0.4,3.1 -2.2,2.5 -4.1,3.3 -9.2,4.3 -7.3,1.3 -9.1,3.3 -3.3,3.8 l 3.8,0.3 -4,1.3 c -2.2,0.6 -7.2,1.2 -11.2,1.2 -6.2,0 -7.5,-0.3 -10.2,-2.5 -6.2,-5.3 -6.2,-13.7 0.2,-19.1 2.8,-2.4 3.7,-2.6 8.6,-2.1 4.2,0.5 6.3,0.2 9.3,-1.4 3.3,-1.7 3.8,-1.7 3.8,-0.4 0,2.5 -2,5.8 -5.3,8.5 -2.6,2.3 -2.8,2.7 -1.4,3.9 3.4,2.7 7.7,-1.5 7.7,-7.7 0,-1.5 0.5,-3.4 1,-4.2 0.8,-1.2 1,-0.9 1,1.2 0,3.7 1.5,3.6 2.9,-0.2 0.5,-1.7 0.6,-3 0.1,-3 -1.7,0 -7,-5.2 -6.9,-6.8 0,-1.1 0.2,-1.2 0.6,-0.5 0.2,0.7 1.1,1.3 2,1.3 1.7,0 0.9,-3.6 -1.3,-5.9 -1.1,-1.2 -1.9,-1.2 -5.4,-0.1 -3.1,1 -4.3,1.1 -5.2,0.2 -0.9,-0.9 -0.6,-1.2 1.5,-1.2 1.5,0 2.7,-0.4 2.7,-1 0,-1.4 -3.5,-3 -6.4,-3 -1.4,0 -2.8,-0.5 -3.2,-1.1 -0.5,-0.9 1.2,-1.1 6.5,-0.7 5.4,0.4 8,1.1 11.1,3.2 z"
     inkscape:label="#path106" />
  <path
     style="fill:#ffffff;stroke:#000000;stroke-opacity:1;fill-opacity:1"
     inkscape:connector-curvature="0"
     id="Forestwalk"
     d="m 32.36386,7.0926194 c -4.3,4.5000006 -17.4,14.2000006 -24.9,18.4000006 -3.6,2 -6.5,3.9 -6.5,4.1 0,0.3 1.1,2.6 2.4,5.2 3.2,6.4 8.3,21.7 9.7,29.4 l 1.2,6.29999 22.6,-0.1 22.6,0 0.8,-4.49999 c 1.5,-7.8 5.8,-21.2 9.40001,-28.9 2.6,-5.8 3.1,-7.7 2.1,-8.3 -10.90001,-6.3 -21.30001,-13.5 -26.80001,-18.500001 -3.8,-3.3999996 -7.5,-6.1999996 -8.2,-6.1999996 -0.8,0 -2.7,1.4 -4.4,3.1 z m 8,12.0000006 c 1.5,1.1 3.3,1.8 4.2,1.5 2.1,-0.8 7.1,1.9 7.9,4.3 0.3,1.1 1.2,2.2 2,2.5 0.8,0.3 1.5,1.4 1.5,2.4 0,1 0.9,2.7 2.1,3.8 1.5,1.3 1.9,2.7 1.6,4.9 -0.2,1.6 0.1,3.7 0.6,4.7 0.8,1.2 0.7,2.1 -0.2,3.2 -1.5,1.8 -4.7,2.1 -5.6,0.6 -0.9,-1.4 -5,-1.2 -8.9,0.4 -2.8,1.2 -3.4,2 -3.8,5.2 -0.7,5.4 0.6,7.3 5.3,8 2.8,0.5 3.6,1 2.7,1.5 -0.7,0.5 -0.8,0.9 -0.3,1 0.6,0.1 -1,0.5 -3.5,0.9 -2.9,0.5 -5,0.4 -5.9,-0.3 -1,-0.9 -1.6,-0.7 -2.6,0.7 -1.3,1.7 -1.4,1.7 -2.3,0 -0.8,-1.5 -1.3,-1.6 -2.5,-0.6 -1.2,1 -1.6,1 -2.1,-0.3 -0.3,-1 -1.8,-1.5 -4.3,-1.5 -4.5,0 -3.3,-1.8 1.9,-2.9 3.9,-0.8 4.9,-3.8 2.3,-7.7 -2.4,-3.7 -5.6,-4.6 -7.8,-2.3 -2.2,2.3 -5.5,2.4 -7.9,0.2 -1.9,-1.7 -2.4,-5.8 -0.8,-6.8 0.6,-0.4 0.5,-1.5 -0.2,-3 -0.9,-2 -0.7,-2.9 1.6,-5.5 1.5,-1.8 2.6,-4.4 2.6,-6.1 0,-3.6 4.3,-6.9 6.8,-5.2 1.3,0.8 2.3,0.3 4.8,-2.4 3.7,-3.9 6.9,-4.2 10.8,-1.2 z"
     inkscape:label="#path108" />
  <g
     id="Shroud"
     inkscape:label="#g4352"
     transform="translate(-123.3534,-394.25791)"
     style="stroke:#000000;stroke-opacity:1;fill:#ffffff;fill-opacity:1">
    <path
       d="m 148.5,397.9 c -4.6,2.1 -10.4,8.1 -12.4,12.8 -1.1,2.8 -1.1,3.4 0.3,4.9 3,2.9 4.7,7.4 5.3,13.9 0.5,6 0.8,6.5 3,6.5 4,0 8,-2.7 12.6,-8.7 6.1,-8 13.1,-14.2 16.7,-15 5,-0.9 3.5,-2.6 -1.6,-1.9 -7.8,1 -12,2.7 -17.5,6.8 -4.9,3.8 -5.3,3.9 -6.6,2.2 -1.6,-2.2 -1.6,-4.5 -0.1,-9.6 1.1,-3.6 6.6,-9.8 8.9,-9.8 1.8,0 2.1,3 0.6,5.4 -0.9,1.3 -1.3,2.6 -1,3 1.3,1.3 5.4,0.5 7.3,-1.4 2.7,-2.7 2.5,-5.6 -0.5,-8.5 -3,-3.1 -9.1,-3.3 -15,-0.6 z"
       id="path96"
       inkscape:connector-curvature="0"
       style="fill:#ffffff;stroke:#000000;stroke-opacity:1;fill-opacity:1" />
    <path
       d="m 164.6,422.6 c -1.5,3.8 -0.4,10.4 3,18.8 3.2,7.9 3.6,9.6 3.2,15.8 -0.4,6.6 -0.3,6.8 1.3,4.6 3.5,-4.6 5.4,-15.1 4.1,-22.1 -1.2,-5.8 -0.1,-6.7 5.3,-4.1 4.8,2.2 8.5,7.8 8.5,12.6 0,3.1 -0.4,3.8 -2,3.8 -1.1,0 -2.5,-1.2 -3.3,-2.7 l -1.4,-2.6 -1.7,2.6 c -2.2,3.3 -1.8,5.5 1.6,8 2.4,1.8 3,1.8 5.8,0.7 7.2,-3 9.3,-16 4.3,-26.1 l -2.8,-5.4 -6,-0.1 c -4.3,0 -7.6,-0.8 -11.9,-2.7 -6.8,-3.2 -7.2,-3.2 -8,-1.1 z"
       id="path110"
       inkscape:connector-curvature="0"
       style="fill:#ffffff;stroke:#000000;stroke-opacity:1;fill-opacity:1" />
    <path
       d="m 128,431.4 c 0,1.9 3.3,6.6 7.2,10.2 3.8,3.5 8.3,6 14.1,7.8 1.4,0.5 1.6,0.9 0.7,2.6 -2.4,4.5 -11.7,7 -17.4,4.6 -4.8,-2 -4.7,-4.9 0.2,-5.4 3.6,-0.4 4.1,-2.1 1.4,-4.5 -2.6,-2.4 -7.9,-2.2 -9.2,0.2 -4.8,9.1 6.4,20.1 20.6,20.1 5.9,0 6.2,-0.1 6.9,-2.7 1,-4.1 3.9,-7.7 9.4,-11.4 2.8,-1.9 5.1,-3.9 5.1,-4.5 0,-1.6 -4.3,-5.3 -7.5,-6.3 -1.7,-0.6 -6.6,-1.5 -11,-2.1 -9.4,-1.4 -14,-3.1 -17.7,-6.7 -1.6,-1.5 -2.8,-2.3 -2.8,-1.9 z"
       id="path112"
       inkscape:connector-curvature="0"
       style="fill:#ffffff;stroke:#000000;stroke-opacity:1;fill-opacity:1" />
  </g>
</svg>
